# AST/ASF file generated using VICON BodyLanguage
# -----------------------------------------------
:version 1.10
:name VICON
:units
  mass 1.0
  length 0.45
  angle deg
:documentation
   .ast/.asf automatically generated from VICON data using
   VICON BodyBuilder and BodyLanguage model FoxedUp or BRILLIANT.MOD
:root
   order TX TY TZ RX RY RZ
   axis XYZ
   position 0 0 0  
   orientation 0 0 0 
:bonedata
  begin
     id 1 
     name lhipjoint
     direction 0.714689 -0.624256 0.315473 
     length 2.45343 
     axis 0 0 0  XYZ
  end
  begin
     id 2 
     name lfemur
     direction 0.34202 -0.939693 0  
     length 6.59069  
     axis 0 0 20  XYZ
    dof rx ry rz
    limits (-160.0 20.0)
           (-70.0 70.0)
           (-60.0 70.0)
  end
  begin
     id 3 
     name ltibia
     direction 0.34202 -0.939693 0   
     length 6.73476   
     axis 0 0 20   XYZ
    dof rx
    limits (-10.0 170.0)
  end
  begin
     id 4 
     name lfoot
     direction 0.0718085 -0.197292 0.977711   
     length 1.52607   
     axis -90 7.62852e-016 20   XYZ
    dof rx rz
    limits (-45.0 90.0)
           (-70.0 20.0)
  end
  begin
     id 5 
     name ltoes
     direction 1.53553e-011 -4.22024e-011 1   
     length 0.777832   
     axis -90 7.62852e-016 20   XYZ
    dof rx
    limits (-90.0 20.0)
  end
  begin
     id 6 
     name rhipjoint
     direction -0.727419 -0.612432 0.309497   
     length 2.50079  
     axis 0 0 0  XYZ 
  end
  begin
     id 7 
     name rfemur
     direction -0.34202 -0.939693 0   
     length 6.51665   
     axis 0 0 -20   XYZ
    dof rx ry rz
    limits (-160.0 20.0)
           (-70.0 70.0)
           (-70.0 60.0)
  end
  begin
     id 8 
     name rtibia
     direction -0.34202 -0.939693 0   
     length 6.48919   
     axis 0 0 -20   XYZ
    dof rx
    limits (-10.0 170.0)
 end
 begin
     id 9 
     name rfoot
     direction -0.112205 -0.308282 0.944655   
     length 1.68717  
     axis -90 -7.62852e-016 -20   XYZ
    dof rx rz
    limits (-45.0 90.0)
           (-20.0 70.0)
  end
  begin
     id 10 
     name rtoes
     direction -1.53583e-011 -4.21993e-011 1   
     length 0.846859   
     axis -90 -7.62852e-016 -20   XYZ
    dof rx
    limits (-90.0 20.0)
  end
  begin
     id 11 
     name lowerback
     direction -0.00119603 0.996364 -0.0851956   
     length 1.67242   
     axis 0 0 0   XYZ
    dof rx ry rz
    limits (-20.0 45.0)
           (-30.0 30.0)
           (-30.0 30.0)
  end
  begin
     id 12 
     name upperback
     direction -0.00531001 0.998318 0.0577248   
     length 1.64819   
     axis 0 0 0   XYZ
    dof rx ry rz
    limits (-20.0 45.0)
           (-30.0 30.0)
           (-30.0 30.0)
  end
  begin
     id 13 
     name thorax
     direction -0.00653676 0.995132 0.0983291   
     length 1.67429   
     axis 0 0 0   XYZ
    dof rx ry rz
    limits (-20.0 45.0)
           (-30.0 30.0)
           (-30.0 30.0)
  end
  begin
     id 14 
     name lowerneck
     direction 0.0141424 0.999886 0.00525412   
     length 1.59623   
     axis 0 0 0   XYZ
    dof rx ry rz
    limits (-20.0 45.0)
           (-30.0 30.0)
           (-30.0 30.0)
  end
  begin
     id 15 
     name upperneck
     direction -0.0640064 0.987178 -0.146232   
     length 1.59576   
     axis 0 0 0   XYZ
    dof rx ry rz
    limits (-20.0 45.0)
           (-30.0 30.0)
           (-30.0 30.0)
  end
  begin
     id 16
     name head
     direction -0.0222942 0.998496 -0.0500859  
     length 1.60959  
     axis 0 0 0   XYZ
    dof rx ry rz
    limits (-20.0 45.0)
           (-30.0 30.0)
           (-30.0 30.0)
  end
  begin
     id 17 
     name lclavicle
     direction 0.908549 0.392612 0.142806  
     length 2.80649  
     axis 0 0 0   XYZ
    dof ry rz
    limits (-20.0 10.0)
           (0.0 20.0)
  end
  begin
     id 18 
     name lhumerus
     direction 1 -4.48968e-011 1.08832e-028   
     length 4.2884   
     axis -180 -30 -90   XYZ
    dof rx ry rz
    limits (-60.0 90.0)
           (-90.0 90.0)
           (-90.0 90.0)
  end
  begin
     id 19
     name lradius
     direction 1 -4.48952e-011 -3.02642e-028   
     length 3.06552   
     axis -180 -30 -90   XYZ
    dof rx
    limits (-10.0 170.0)
  end
  begin
     id 20
     name lwrist
     direction 1 -4.49014e-011 1.58672e-027   
     length 1.53276   
     axis -1.65735e-015 90 90   XYZ
    dof ry
    limits (-180.0 0.0)
 end
  begin
     id 21 
     name lhand
     direction 1 -4.48928e-011 3.17344e-027   
     length 0.753045   
     axis -2.02492e-015 90 90   XYZ
    dof rx rz
    limits (-90.0 90.0)
           (-45.0 45.0)
  end
  begin
     id 22 
     name lfingers
     direction 1 -4.48958e-011 6.34687e-027   
     length 0.607124   
     axis -4.04985e-015 90 90   XYZ
    dof rx
    limits (0.0 90.0)
  end
  begin
     id 23
     name lthumb
     direction 0.707107 -6.34905e-011 0.707107   
     length 0.871712   
     axis -90 45 2.85299e-015   XYZ
    dof rx rz
    limits (-45.0 45.0)
           (-45.0 45.0)
  end
  begin
     id 24 
     name rclavicle
     direction -0.885098 0.45949 0.0739604   
     length 2.9478  
     axis 0 0 0   XYZ 
    dof ry rz
    limits (-10.0 20.0)
           (-20.0 0.0)
  end
  begin
     id 25 
     name rhumerus
     direction -1 -4.4898e-011 -2.61739e-027  
     length 4.52172   
     axis -180 30 90   XYZ
    dof rx ry rz
    limits (-90.0 60.0)
           (-90.0 90.0)
           (-90.0 90.0)
  end
  begin
     id 26 
     name rradius
     direction -1 -4.48945e-011 9.02552e-028   
     length 2.8914   
     axis -180 30 90   XYZ
    dof rx
    limits (-10.0 170.0)
  end
  begin
     id 27 
     name rwrist
     direction -1 -4.49018e-011 1.58672e-027   
     length 1.4457   
     axis -1.65735e-015 -90 -90   XYZ
    dof ry
    limits (-180.0 0.0)
  end
  begin
     id 28
     name rhand
     direction -1 -4.48825e-011 3.17344e-027   
     length 0.680541   
     axis -2.02492e-015 -90 -90   XYZ
    dof rx rz
    limits (-90.0 90.0)
           (-45.0 45.0)
  end
  begin
     id 29
     name rfingers
     direction -1 -4.49067e-011 6.34687e-027   
     length 0.54867   
     axis -4.04985e-015 -90 -90   XYZ
    dof rx
    limits (0.0 90.0)
  end
  begin
     id 30
     name rthumb
     direction -0.707107 -6.34833e-011 0.707107   
     length 0.787783   
     axis -90 -45 -2.85299e-015   XYZ
    dof rx rz
    limits (-45.0 45.0)
           (-45.0 45.0)
  end
:hierarchy
  begin
    root lhipjoint rhipjoint lowerback
    lhipjoint lfemur
    lfemur ltibia
    ltibia lfoot
    lfoot ltoes
    rhipjoint rfemur
    rfemur rtibia
    rtibia rfoot
    rfoot rtoes
    lowerback upperback
    upperback thorax
    thorax lowerneck lclavicle rclavicle
    lowerneck upperneck
    upperneck head
    lclavicle lhumerus
    lhumerus lradius
    lradius lwrist
    lwrist lhand lthumb
    lhand lfingers
    rclavicle rhumerus
    rhumerus rradius
    rradius rwrist
    rwrist rhand rthumb
    rhand rfingers
  end

#!OML:ASF E:\emotionWalksFemale\Project 1\Capture day 1\Session 1\Female1.ASF
:FULLY-SPECIFIED
:DEGREES
56
root 7.05188 15.194 40.1836 179.433 -0.123638 -180.628
lowerback 8.90392 1.25144 -1.7695
upperback -3.80419 1.42492 0.085415
thorax -9.09893 0.782796 0.851497
lowerneck -5.98764 -3.69481 -7.95172
upperneck 11.1854 -5.56568 8.9979
head 4.7948 -2.6948 3.74432
rclavicle -4.67998e-015 -1.06226e-015
rhumerus -47.2085 3.053 -84.4777
rradius 32.1354
rwrist 14.4647
rhand -1.94278 -54.3334
rfingers 7.12502
rthumb 23.7283 -82.8886
lclavicle -4.67998e-015 -1.06226e-015
lhumerus -46.9948 -6.66434 88.4929
lradius 36.6003
lwrist -13.0632
lhand -6.73556 -34.1162
lfingers 7.12502
lthumb 19.1251 -5.03656
rfemur -29.4917 9.88754 19.1306
rtibia 32.7402
rfoot -16.0846 -23.5066
rtoes -16.3308
lfemur 6.69989 -19.7443 -32.9758
ltibia 14.1065
lfoot -21.1958 21.2189
ltoes -27.735
57
root 7.05387 15.1858 40.1201 179.433 -0.26041 -180.7
lowerback 8.75391 1.22816 -1.82605
upperback -3.74778 1.39031 0.0784092
thorax -8.94962 0.768374 0.88515
lowerneck -6.10895 -3.70767 -7.92744
upperneck 11.3027 -5.57273 8.90247
head 4.84879 -2.69832 3.70784
rclavicle 9.6131e-016 6.07536e-015
rhumerus -47.1313 2.94863 -84.3616
rradius 32.2326
rwrist 14.9606
rhand -1.99835 -54.776
rfingers 7.12502
rthumb 23.675 -83.338
lclavicle 9.6131e-016 6.07536e-015
lhumerus -46.8969 -6.57274 88.5977
lradius 36.3062
lwrist -13.1098
lhand -5.97542 -34.0587
lfingers 7.12502
lthumb 19.856 -5.05297
rfemur -29.2629 11.1657 18.507
rtibia 31.0098
rfoot -15.9105 -24.2924
rtoes -16.2448
lfemur 7.04852 -19.5676 -33.0903
ltibia 13.9313
lfoot -21.2412 21.1112
ltoes -28.4668
58
root 7.0571 15.1787 40.0554 179.542 -0.327952 -180.744
lowerback 8.5839 1.24181 -1.86517
upperback -3.79862 1.40177 0.0564567
thorax -8.90616 0.774288 0.884795
lowerneck -6.06294 -3.67076 -7.90991
upperneck 11.3447 -5.53378 8.89898
head 4.84965 -2.68125 3.70736
rclavicle -5.48987e-016 -4.93234e-015
rhumerus -47.2256 2.64711 -84.123
rradius 32.4291
rwrist 15.6551
rhand -1.35941 -54.5463
rfingers 7.12502
rthumb 24.2877 -83.0278
lclavicle -5.48987e-016 -4.93234e-015
lhumerus -46.9294 -6.77381 88.8119
lradius 35.8634
lwrist -13.2547
lhand -5.73982 -33.6738
lfingers 7.12502
lthumb 20.0824 -4.69174
rfemur -29.2134 12.6977 17.8264
rtibia 29.4074
rfoot -14.9777 -25.5398
rtoes -18.1054
lfemur 7.28788 -19.2654 -33.0972
ltibia 13.6999
lfoot -21.1612 20.854
ltoes -29.2385
59
root 7.0585 15.1747 39.9924 179.691 -0.372746 -180.729
lowerback 8.41471 1.24761 -1.72693
upperback -3.84585 1.4214 -0.00183548
thorax -8.85326 0.772595 0.745028
lowerneck -6.04658 -3.65891 -7.71778
upperneck 11.3572 -5.50626 8.66259
head 4.83704 -2.67175 3.60345
rclavicle 2.23849e-014 -4.7025e-015
rhumerus -47.3106 2.60522 -84.2393
rradius 32.6685
rwrist 15.1189
rhand -0.388024 -54.6718
rfingers 7.12502
rthumb 25.2187 -83.0254
lclavicle 2.23849e-014 -4.7025e-015
lhumerus -47.2182 -6.73957 88.7843
lradius 36.0383
lwrist -13.9176
lhand -5.89643 -33.652
lfingers 7.12502
lthumb 19.9319 -4.65417
rfemur -29.2699 14.604 17.0532
rtibia 27.9322
rfoot -14.6955 -27.1741
rtoes -17.7637
lfemur 7.46652 -19.0884 -33.0418
ltibia 13.489
lfoot -21.285 20.538
ltoes -28.838
60
root 7.05724 15.172 39.9245 179.752 -0.504334 -180.704
lowerback 8.33077 1.19603 -1.50088
upperback -3.86655 1.37275 -0.0808167
thorax -8.81659 0.73253 0.543605
lowerneck -6.05388 -3.65989 -7.51016
upperneck 11.3032 -5.49021 8.44139
head 4.80925 -2.66479 3.50075
rclavicle 9.3289e-015 -4.96962e-016
rhumerus -47.3726 2.64215 -84.4916
rradius 32.8606
rwrist 14.358
rhand -0.962943 -55.0001
rfingers 7.12502
rthumb 24.6677 -83.4302
lclavicle 9.3289e-015 -4.96962e-016
lhumerus -47.0633 -6.59522 88.6148
lradius 35.5779
lwrist -13.6438
lhand -4.90549 -34.3426
lfingers 7.12502
lthumb 20.8842 -5.44675
rfemur -29.2284 16.4539 16.2616
rtibia 26.5786
rfoot -17.0716 -28.982
rtoes -12.046
lfemur 7.76486 -19.1774 -33.0879
ltibia 13.3398
lfoot -21.3461 20.5948
ltoes -28.9052
61
root 7.05853 15.1615 39.8604 179.796 -0.655429 -180.779
lowerback 8.3464 1.13625 -1.45091
upperback -3.89464 1.29072 -0.15203
thorax -8.85127 0.686993 0.452546
lowerneck -6.15932 -3.62985 -7.51422
upperneck 11.3028 -5.46094 8.5838
head 4.82837 -2.64067 3.54648
rclavicle -1.37767e-014 1.46604e-015
rhumerus -47.3082 2.56009 -84.5056
rradius 32.9109
rwrist 14.542
rhand -1.77381 -55.2563
rfingers 7.12502
rthumb 23.8903 -83.7903
lclavicle -1.37767e-014 1.46604e-015
lhumerus -47.291 -6.83537 88.7775
lradius 35.6266
lwrist -13.3501
lhand -4.56554 -34.2706
lfingers 7.12502
lthumb 21.2108 -5.4111
rfemur -29.2354 17.9098 15.5198
rtibia 25.4206
rfoot -14.0822 -31.854
rtoes -17.2588
lfemur 8.10965 -19.2164 -33.2187
ltibia 13.0713
lfoot -21.1957 20.6847
ltoes -29.7003
62
root 7.06292 15.15 39.7906 179.866 -0.702019 -180.84
lowerback 8.11235 1.08845 -1.47113
upperback -3.85824 1.22681 -0.1662
thorax -8.67317 0.655711 0.463841
lowerneck -6.23869 -3.57341 -7.47241
upperneck 11.299 -5.37648 8.56043
head 4.83193 -2.59557 3.537
rclavicle 4.43072e-015 6.43565e-015
rhumerus -47.1131 2.72867 -84.5424
rradius 32.8379
rwrist 14.6018
rhand -1.69998 -56.1257
rfingers 7.12502
rthumb 23.9611 -84.6505
lclavicle 4.43072e-015 6.43565e-015
lhumerus -47.4116 -6.91227 88.9463
lradius 35.5616
lwrist -13.4033
lhand -4.39215 -33.6873
lfingers 7.12502
lthumb 21.3773 -4.84658
rfemur -29.3729 19.3972 14.7854
rtibia 24.485
rfoot -12.4832 -32.3406
rtoes -20.3882
lfemur 8.50297 -19.1217 -33.3177
ltibia 12.715
lfoot -21.1734 20.5139
ltoes -30.1461
63
root 7.07033 15.1503 39.7253 179.954 -0.752154 -180.861
lowerback 8.15489 1.06752 -1.64819
upperback -3.93651 1.18223 -0.0643311
thorax -8.78896 0.647458 0.676712
lowerneck -6.15622 -3.55186 -7.29209
upperneck 11.1332 -5.293 8.16081
head 4.74594 -2.56526 3.38928
rclavicle -2.76124e-015 8.82107e-016
rhumerus -47.1108 2.95142 -84.5349
rradius 32.8373
rwrist 14.1712
rhand -1.96342 -55.8683
rfingers 7.12502
rthumb 23.7085 -84.426
lclavicle -2.76124e-015 8.82107e-016
lhumerus -47.5049 -6.79274 89.1981
lradius 35.2555
lwrist -13.8528
lhand -4.58891 -33.5696
lfingers 7.12502
lthumb 21.1883 -4.70756
rfemur -29.7038 21.4001 13.7944
rtibia 23.7179
rfoot -13.1422 -34.6248
rtoes -20.8182
lfemur 8.7943 -18.8468 -33.2725
ltibia 12.4014
lfoot -21.1865 20.1168
ltoes -30.2793
64
root 7.07672 15.1479 39.6633 180.057 -0.865628 -180.877
lowerback 8.20932 1.05738 -1.74662
upperback -4.01074 1.15906 0.0108559
thorax -8.90529 0.644541 0.813879
lowerneck -6.03562 -3.6006 -7.2794
upperneck 10.8457 -5.31393 8.00639
head 4.63559 -2.58077 3.3398
rclavicle 1.31074e-015 3.97569e-016
rhumerus -47.1582 3.00869 -84.4461
rradius 32.9905
rwrist 13.8008
rhand -2.43252 -53.9795
rfingers 7.12502
rthumb 23.2585 -82.5948
lclavicle 1.31074e-015 3.97569e-016
lhumerus -47.5865 -6.98014 89.5562
lradius 34.9474
lwrist -14.3511
lhand -5.16477 -33.6777
lfingers 7.12502
lthumb 20.6351 -4.75456
rfemur -30.0351 23.1936 12.8887
rtibia 23.1293
rfoot -16.6085 -35.9986
rtoes -13.9773
lfemur 9.06129 -18.4654 -33.1601
ltibia 12.0364
lfoot -21.2951 19.4601
ltoes -29.4941
65
root 7.08146 15.1427 39.5964 180.174 -1.00576 -180.887
lowerback 8.23206 1.02644 -1.74151
upperback -4.128 1.11536 0.0517495
thorax -9.04605 0.623945 0.860194
lowerneck -5.90916 -3.57377 -7.42626
upperneck 10.6825 -5.25717 8.04163
head 4.56469 -2.55764 3.38115
rclavicle 3.98501e-015 -5.76476e-015
rhumerus -47.3622 3.30323 -84.4633
rradius 33.3344
rwrist 13.4163
rhand -2.60113 -52.629
rfingers 7.12502
rthumb 23.0967 -81.2647
lclavicle 3.98501e-015 -5.76476e-015
lhumerus -47.7499 -7.2018 89.8467
lradius 34.957
lwrist -13.9707
lhand -4.08706 -33.3593
lfingers 7.12502
lthumb 21.6704 -4.55203
rfemur -30.3713 24.8219 12.0757
rtibia 22.6908
rfoot -22.3254 -37.2654
rtoes -3.86953
lfemur 9.37986 -18.3372 -33.1138
ltibia 11.6693
lfoot -21.3124 19.015
ltoes -28.9901
66
root 7.08297 15.1411 39.5286 180.215 -1.15408 -180.828
lowerback 8.25078 0.948065 -1.56359
upperback -4.1483 1.03262 0.0740259
thorax -9.07307 0.573944 0.796725
lowerneck -5.88496 -3.47572 -7.52276
upperneck 10.5028 -5.10836 8.14867
head 4.499 -2.48069 3.44108
rclavicle 9.62863e-016 2.98177e-016
rhumerus -47.4158 3.77006 -84.6793
rradius 33.6896
rwrist 12.7961
rhand -3.01791 -53.0249
rfingers 7.12502
rthumb 22.6968 -81.7101
lclavicle 9.62863e-016 2.98177e-016
lhumerus -47.8626 -7.1754 89.9583
lradius 34.9516
lwrist -13.9863
lhand -3.72266 -33.4917
lfingers 7.12502
lthumb 22.0203 -4.72527
rfemur -30.6942 26.2863 11.4102
rtibia 22.5037
rfoot -24.4652 -38.8783
rtoes -1.82895
lfemur 9.78685 -18.0141 -32.9749
ltibia 11.2245
lfoot -20.9668 18.7189
ltoes -30.2703
67
root 7.08446 15.1326 39.4582 180.195 -1.30554 -180.777
lowerback 8.21861 0.85987 -1.39523
upperback -4.09054 0.939661 0.093027
thorax -8.9853 0.519748 0.737879
lowerneck -5.81923 -3.39911 -7.56597
upperneck 10.2117 -4.98356 8.23316
head 4.39247 -2.41459 3.48408
rclavicle 8.38623e-016 2.68359e-015
rhumerus -47.2739 4.026 -84.7949
rradius 33.834
rwrist 12.3247
rhand -3.31049 -53.7843
rfingers 7.12502
rthumb 22.416 -82.5036
lclavicle 8.38623e-016 2.68359e-015
lhumerus -47.8325 -7.13198 90.1005
lradius 34.8171
lwrist -14.2567
lhand -4.1661 -33.8708
lfingers 7.12502
lthumb 21.5945 -5.05488
rfemur -30.6241 26.862 11.2208
rtibia 22.1666
rfoot -24.5217 -39.4
rtoes -0.403263
lfemur 10.2095 -18.3256 -33.077
ltibia 11.0952
lfoot -21.0598 19.0394
ltoes -30.1554
68
root 7.08741 15.1352 39.3862 180.191 -1.38177 -180.848
lowerback 8.18549 0.83129 -1.40678
upperback -4.06623 0.897859 0.0527166
thorax -8.93773 0.498666 0.708783
lowerneck -5.70393 -3.40873 -7.41354
upperneck 9.91073 -4.97794 8.13653
head 4.27551 -2.41038 3.43125
rclavicle 2.93829e-015 -4.96962e-016
rhumerus -47.1091 3.78123 -84.6186
rradius 33.8878
rwrist 12.8104
rhand -2.78168 -54.1926
rfingers 7.12502
rthumb 22.9235 -82.8499
lclavicle 2.93829e-015 -4.96962e-016
lhumerus -47.7958 -7.25106 90.2508
lradius 34.5897
lwrist -14.5822
lhand -4.57901 -33.8047
lfingers 7.12502
lthumb 21.1979 -4.94371
rfemur -30.1156 26.1821 11.5925
rtibia 21.9582
rfoot -23.8264 -38.9757
rtoes -2.56955
lfemur 10.5653 -17.9077 -33.0917
ltibia 10.8923
lfoot -21.3598 18.5558
ltoes -28.9824
69
root 7.09455 15.1124 39.3141 180.243 -1.33929 -180.864
lowerback 8.12805 0.860496 -1.41469
upperback -4.04551 0.934983 0.0229309
thorax -8.88194 0.515923 0.676613
lowerneck -5.61358 -3.42157 -7.18573
upperneck 9.5982 -4.97577 7.995
head 4.15684 -2.40659 3.35179
rclavicle -1.42131e-014 -8.94531e-016
rhumerus -46.9382 3.49074 -84.4702
rradius 33.9423
rwrist 13.4355
rhand -2.19961 -54.9434
rfingers 7.12502
rthumb 23.4819 -83.5303
lclavicle -1.42131e-014 -8.94531e-016
lhumerus -47.8559 -7.47983 90.4067
lradius 34.4982
lwrist -14.9433
lhand -5.03191 -33.5208
lfingers 7.12502
lthumb 20.7628 -4.6116
rfemur -30.8765 27.7944 10.623
rtibia 21.8073
rfoot -22.9561 -40.9218
rtoes -6.79861
lfemur 10.9203 -17.4821 -33.0484
ltibia 10.6033
lfoot -21.4716 18.2395
ltoes -28.5123
